<?xml version="1.0" encoding="UTF-8"?>
<!DOCTYPE svg PUBLIC "-//W3C//DTD SVG 1.1//EN" "http://www.w3.org/Graphics/SVG/1.1/DTD/svg11.dtd">
<!-- Creator: CorelDRAW -->
<svg xmlns="http://www.w3.org/2000/svg" xml:space="preserve" width="512px" height="256px" version="1.1" shape-rendering="geometricPrecision" text-rendering="geometricPrecision" image-rendering="optimizeQuality" fill-rule="evenodd" clip-rule="evenodd"
viewBox="0 0 45510 22760"
 xmlns:xlink="http://www.w3.org/1999/xlink"
 xmlns:xodm="http://www.corel.com/coreldraw/odm/2003">
 <defs>
    <clipPath id="id0">
     <path d="M0 0l45510 0 0 11380 -45510 0 0 -11380z"/>
    </clipPath>
    <clipPath id="id1">
     <path d="M0 11380l45510 0 0 11380 -45510 0 0 -11380z"/>
    </clipPath>
 </defs>
 <g id="Layer_x0020_1">
  <metadata id="CorelCorpID_0Corel-Layer"/>
  <g id="_1348808071568">
   <polygon fill="#339966" points="0,0 45510,0 45510,11380 0,11380 "/>
   <g clip-path="url(#id0)">
    <g>
     <g>
      <g>
       <polygon id="_1" fill="black" fill-opacity="0.501961" points="1400,10430 1010,10430 1010,10040 1400,10040 "/>
       <polygon fill="black" fill-opacity="0.501961" points="6600,9700 6210,9700 6210,9310 6600,9310 "/>
       <polygon fill="black" fill-opacity="0.501961" points="2870,7850 2470,7850 2470,7450 2870,7450 "/>
       <polygon fill="black" fill-opacity="0.501961" points="2250,4040 1860,4040 1860,3650 2250,3650 "/>
       <polygon fill="black" fill-opacity="0.501961" points="4720,1570 4330,1570 4330,1180 4720,1180 "/>
       <polygon fill="black" fill-opacity="0.501961" points="8550,4530 8150,4530 8150,4130 8550,4130 "/>
       <polygon fill="black" fill-opacity="0.501961" points="5590,5790 5200,5790 5200,5400 5590,5400 "/>
       <polygon fill="black" fill-opacity="0.501961" points="10750,1520 10350,1520 10350,1120 10750,1120 "/>
       <polygon fill="black" fill-opacity="0.501961" points="10480,9740 10080,9740 10080,9350 10480,9350 "/>
       <polygon fill="black" fill-opacity="0.501961" points="810,880 420,880 420,490 810,490 "/>
       <polygon fill="white" fill-opacity="0.501961" points="4560,7500 4170,7500 4170,7110 4560,7110 "/>
       <polygon fill="white" fill-opacity="0.501961" points="2670,2180 2270,2180 2270,1790 2670,1790 "/>
       <polygon fill="white" fill-opacity="0.501961" points="8400,1520 8010,1520 8010,1120 8400,1120 "/>
       <polygon fill="white" fill-opacity="0.501961" points="10510,5550 10120,5550 10120,5160 10510,5160 "/>
       <polygon fill="white" fill-opacity="0.501961" points="8060,7480 7670,7480 7670,7090 8060,7090 "/>
       <polygon fill="white" fill-opacity="0.501961" points="6220,3260 5830,3260 5830,2870 6220,2870 "/>
       <polygon fill="white" fill-opacity="0.501961" points="1440,5990 1050,5990 1050,5590 1440,5590 "/>
       <polygon fill="white" fill-opacity="0.501961" points="3750,9760 3360,9760 3360,9360 3750,9360 "/>
       <polygon fill="white" fill-opacity="0.501961" points="9050,9850 8660,9850 8660,9450 9050,9450 "/>
       <polygon fill="white" fill-opacity="0.501961" points="4040,4420 3650,4420 3650,4020 4040,4020 "/>
      </g>
      <g>
       <polygon fill="black" fill-opacity="0.501961" points="12090,1280 12090,890 12480,890 12480,1280 "/>
       <polygon fill="black" fill-opacity="0.501961" points="12820,6480 12820,6090 13210,6090 13210,6480 "/>
       <polygon fill="black" fill-opacity="0.501961" points="14680,2750 14680,2350 15070,2350 15070,2750 "/>
       <polygon fill="black" fill-opacity="0.501961" points="18480,2130 18480,1740 18880,1740 18880,2130 "/>
       <polygon fill="black" fill-opacity="0.501961" points="20950,4600 20950,4210 21350,4210 21350,4600 "/>
       <polygon fill="black" fill-opacity="0.501961" points="17990,8430 17990,8030 18390,8030 18390,8430 "/>
       <polygon fill="black" fill-opacity="0.501961" points="16730,5470 16730,5080 17130,5080 17130,5470 "/>
       <polygon fill="black" fill-opacity="0.501961" points="21010,10630 21010,10230 21400,10230 21400,10630 "/>
       <polygon fill="black" fill-opacity="0.501961" points="12780,10360 12780,9960 13180,9960 13180,10360 "/>
       <polygon fill="black" fill-opacity="0.501961" points="21640,690 21640,300 22030,300 22030,690 "/>
       <polygon fill="white" fill-opacity="0.501961" points="15020,4440 15020,4050 15410,4050 15410,4440 "/>
       <polygon fill="white" fill-opacity="0.501961" points="20340,2550 20340,2150 20730,2150 20730,2550 "/>
       <polygon fill="white" fill-opacity="0.501961" points="21010,8280 21010,7890 21400,7890 21400,8280 "/>
       <polygon fill="white" fill-opacity="0.501961" points="16970,10390 16970,10000 17360,10000 17360,10390 "/>
       <polygon fill="white" fill-opacity="0.501961" points="15040,7940 15040,7550 15430,7550 15430,7940 "/>
       <polygon fill="white" fill-opacity="0.501961" points="19260,6100 19260,5710 19650,5710 19650,6100 "/>
       <polygon fill="white" fill-opacity="0.501961" points="16530,1320 16530,930 16930,930 16930,1320 "/>
       <polygon fill="white" fill-opacity="0.501961" points="12760,3630 12760,3240 13160,3240 13160,3630 "/>
       <polygon fill="white" fill-opacity="0.501961" points="12670,8930 12670,8540 13070,8540 13070,8930 "/>
       <polygon fill="white" fill-opacity="0.501961" points="18100,3920 18100,3520 18500,3520 18500,3920 "/>
      </g>
      <g>
       <polygon fill="black" fill-opacity="0.501961" points="32560,490 32960,490 32960,880 32560,880 "/>
       <polygon fill="black" fill-opacity="0.501961" points="27360,1220 27760,1220 27760,1610 27360,1610 "/>
       <polygon fill="black" fill-opacity="0.501961" points="31100,3080 31490,3080 31490,3470 31100,3470 "/>
       <polygon fill="black" fill-opacity="0.501961" points="31710,6880 32100,6880 32100,7280 31710,7280 "/>
       <polygon fill="black" fill-opacity="0.501961" points="29240,9350 29630,9350 29630,9750 29240,9750 "/>
       <polygon fill="black" fill-opacity="0.501961" points="25410,6400 25810,6400 25810,6790 25410,6790 "/>
       <polygon fill="black" fill-opacity="0.501961" points="28370,5130 28770,5130 28770,5530 28370,5530 "/>
       <polygon fill="black" fill-opacity="0.501961" points="23210,9410 23610,9410 23610,9800 23210,9800 "/>
       <polygon fill="black" fill-opacity="0.501961" points="23490,1180 23880,1180 23880,1580 23490,1580 "/>
       <polygon fill="black" fill-opacity="0.501961" points="33150,10040 33550,10040 33550,10430 33150,10430 "/>
       <polygon fill="white" fill-opacity="0.501961" points="29400,3420 29790,3420 29790,3810 29400,3810 "/>
       <polygon fill="white" fill-opacity="0.501961" points="31290,8740 31690,8740 31690,9130 31290,9130 "/>
       <polygon fill="white" fill-opacity="0.501961" points="25560,9410 25950,9410 25950,9800 25560,9800 "/>
       <polygon fill="white" fill-opacity="0.501961" points="23450,5370 23840,5370 23840,5760 23450,5760 "/>
       <polygon fill="white" fill-opacity="0.501961" points="25900,3440 26300,3440 26300,3830 25900,3830 "/>
       <polygon fill="white" fill-opacity="0.501961" points="27740,7660 28130,7660 28130,8050 27740,8050 "/>
       <polygon fill="white" fill-opacity="0.501961" points="32520,4940 32910,4940 32910,5330 32520,5330 "/>
       <polygon fill="white" fill-opacity="0.501961" points="30210,1170 30610,1170 30610,1560 30210,1560 "/>
       <polygon fill="white" fill-opacity="0.501961" points="24910,1080 25300,1080 25300,1470 24910,1470 "/>
       <polygon fill="white" fill-opacity="0.501961" points="29920,6500 30320,6500 30320,6900 29920,6900 "/>
      </g>
      <g>
       <polygon fill="black" fill-opacity="0.501961" points="44800,9640 44800,10040 44410,10040 44410,9640 "/>
       <polygon fill="black" fill-opacity="0.501961" points="44070,4440 44070,4840 43680,4840 43680,4440 "/>
       <polygon fill="black" fill-opacity="0.501961" points="42220,8180 42220,8570 41820,8570 41820,8180 "/>
       <polygon fill="black" fill-opacity="0.501961" points="38410,8790 38410,9180 38020,9180 38020,8790 "/>
       <polygon fill="black" fill-opacity="0.501961" points="35940,6320 35940,6710 35550,6710 35550,6320 "/>
       <polygon fill="black" fill-opacity="0.501961" points="38900,2500 38900,2890 38500,2890 38500,2500 "/>
       <polygon fill="black" fill-opacity="0.501961" points="40160,5450 40160,5850 39770,5850 39770,5450 "/>
       <polygon fill="black" fill-opacity="0.501961" points="35890,300 35890,690 35490,690 35490,300 "/>
       <polygon fill="black" fill-opacity="0.501961" points="44110,570 44110,960 43720,960 43720,570 "/>
       <polygon fill="black" fill-opacity="0.501961" points="35250,10230 35250,10630 34860,10630 34860,10230 "/>
       <polygon fill="white" fill-opacity="0.501961" points="41870,6480 41870,6880 41480,6880 41480,6480 "/>
       <polygon fill="white" fill-opacity="0.501961" points="36550,8380 36550,8770 36160,8770 36160,8380 "/>
       <polygon fill="white" fill-opacity="0.501961" points="35890,2640 35890,3030 35490,3030 35490,2640 "/>
       <polygon fill="white" fill-opacity="0.501961" points="39930,530 39930,920 39530,920 39530,530 "/>
       <polygon fill="white" fill-opacity="0.501961" points="41850,2980 41850,3380 41460,3380 41460,2980 "/>
       <polygon fill="white" fill-opacity="0.501961" points="37630,4820 37630,5220 37240,5220 37240,4820 "/>
       <polygon fill="white" fill-opacity="0.501961" points="40360,9600 40360,10000 39960,10000 39960,9600 "/>
       <polygon fill="white" fill-opacity="0.501961" points="44130,7290 44130,7690 43730,7690 43730,7290 "/>
       <polygon fill="white" fill-opacity="0.501961" points="44220,1990 44220,2390 43820,2390 43820,1990 "/>
       <polygon fill="white" fill-opacity="0.501961" points="38790,7000 38790,7400 38400,7400 38400,7000 "/>
      </g>
     </g>
    </g>
   </g>
   <polygon fill="none" points="0,0 45510,0 45510,11380 0,11380 "/>
   <polygon fill="#339966" points="0,11380 45510,11380 45510,22760 0,22760 "/>
   <g clip-path="url(#id1)">
    <g>
     <g>
      <g>
       <polygon id="_1_0" fill="black" fill-opacity="0.501961" points="43820,11870 44210,11870 44210,12260 43820,12260 "/>
       <polygon fill="black" fill-opacity="0.501961" points="38620,12600 39010,12600 39010,12990 38620,12990 "/>
       <polygon fill="black" fill-opacity="0.501961" points="42350,14460 42750,14460 42750,14850 42350,14850 "/>
       <polygon fill="black" fill-opacity="0.501961" points="42970,18260 43360,18260 43360,18660 42970,18660 "/>
       <polygon fill="black" fill-opacity="0.501961" points="40500,20730 40890,20730 40890,21130 40500,21130 "/>
       <polygon fill="black" fill-opacity="0.501961" points="36670,17770 37070,17770 37070,18170 36670,18170 "/>
       <polygon fill="black" fill-opacity="0.501961" points="39630,16510 40020,16510 40020,16910 39630,16910 "/>
       <polygon fill="black" fill-opacity="0.501961" points="34470,20790 34870,20790 34870,21180 34470,21180 "/>
       <polygon fill="black" fill-opacity="0.501961" points="34740,12560 35140,12560 35140,12960 34740,12960 "/>
       <polygon fill="black" fill-opacity="0.501961" points="44410,21420 44800,21420 44800,21810 44410,21810 "/>
       <polygon fill="white" fill-opacity="0.501961" points="40660,14800 41050,14800 41050,15190 40660,15190 "/>
       <polygon fill="white" fill-opacity="0.501961" points="42550,20120 42950,20120 42950,20510 42550,20510 "/>
       <polygon fill="white" fill-opacity="0.501961" points="36820,20790 37210,20790 37210,21180 36820,21180 "/>
       <polygon fill="white" fill-opacity="0.501961" points="34710,16750 35100,16750 35100,17140 34710,17140 "/>
       <polygon fill="white" fill-opacity="0.501961" points="37160,14820 37550,14820 37550,15210 37160,15210 "/>
       <polygon fill="white" fill-opacity="0.501961" points="39000,19040 39390,19040 39390,19430 39000,19430 "/>
       <polygon fill="white" fill-opacity="0.501961" points="43780,16310 44170,16310 44170,16710 43780,16710 "/>
       <polygon fill="white" fill-opacity="0.501961" points="41470,12540 41860,12540 41860,12940 41470,12940 "/>
       <polygon fill="white" fill-opacity="0.501961" points="36170,12450 36560,12450 36560,12850 36170,12850 "/>
       <polygon fill="white" fill-opacity="0.501961" points="41180,17880 41570,17880 41570,18280 41180,18280 "/>
      </g>
      <g>
       <polygon fill="black" fill-opacity="0.501961" points="33130,21020 33130,21420 32740,21420 32740,21020 "/>
       <polygon fill="black" fill-opacity="0.501961" points="32400,15820 32400,16220 32010,16220 32010,15820 "/>
       <polygon fill="black" fill-opacity="0.501961" points="30540,19560 30540,19950 30150,19950 30150,19560 "/>
       <polygon fill="black" fill-opacity="0.501961" points="26740,20170 26740,20560 26340,20560 26340,20170 "/>
       <polygon fill="black" fill-opacity="0.501961" points="24270,17700 24270,18090 23870,18090 23870,17700 "/>
       <polygon fill="black" fill-opacity="0.501961" points="27230,13870 27230,14270 26830,14270 26830,13870 "/>
       <polygon fill="black" fill-opacity="0.501961" points="28490,16830 28490,17230 28090,17230 28090,16830 "/>
       <polygon fill="black" fill-opacity="0.501961" points="24210,11670 24210,12070 23820,12070 23820,11670 "/>
       <polygon fill="black" fill-opacity="0.501961" points="32440,11950 32440,12340 32040,12340 32040,11950 "/>
       <polygon fill="black" fill-opacity="0.501961" points="23580,21610 23580,22010 23190,22010 23190,21610 "/>
       <polygon fill="white" fill-opacity="0.501961" points="30200,17860 30200,18250 29810,18250 29810,17860 "/>
       <polygon fill="white" fill-opacity="0.501961" points="24880,19750 24880,20150 24490,20150 24490,19750 "/>
       <polygon fill="white" fill-opacity="0.501961" points="24210,14020 24210,14410 23820,14410 23820,14020 "/>
       <polygon fill="white" fill-opacity="0.501961" points="28250,11910 28250,12300 27860,12300 27860,11910 "/>
       <polygon fill="white" fill-opacity="0.501961" points="30180,14360 30180,14760 29790,14760 29790,14360 "/>
       <polygon fill="white" fill-opacity="0.501961" points="25960,16200 25960,16590 25570,16590 25570,16200 "/>
       <polygon fill="white" fill-opacity="0.501961" points="28690,20980 28690,21370 28290,21370 28290,20980 "/>
       <polygon fill="white" fill-opacity="0.501961" points="32460,18670 32460,19070 32060,19070 32060,18670 "/>
       <polygon fill="white" fill-opacity="0.501961" points="32550,13370 32550,13760 32150,13760 32150,13370 "/>
       <polygon fill="white" fill-opacity="0.501961" points="27120,18380 27120,18780 26720,18780 26720,18380 "/>
      </g>
      <g>
       <polygon fill="black" fill-opacity="0.501961" points="12660,21810 12260,21810 12260,21420 12660,21420 "/>
       <polygon fill="black" fill-opacity="0.501961" points="17860,21080 17460,21080 17460,20690 17860,20690 "/>
       <polygon fill="black" fill-opacity="0.501961" points="14120,19220 13730,19220 13730,18830 14120,18830 "/>
       <polygon fill="black" fill-opacity="0.501961" points="13510,15420 13120,15420 13120,15020 13510,15020 "/>
       <polygon fill="black" fill-opacity="0.501961" points="15980,12950 15590,12950 15590,12550 15980,12550 "/>
       <polygon fill="black" fill-opacity="0.501961" points="19810,15910 19410,15910 19410,15510 19810,15510 "/>
       <polygon fill="black" fill-opacity="0.501961" points="16850,17170 16450,17170 16450,16770 16850,16770 "/>
       <polygon fill="black" fill-opacity="0.501961" points="22010,12890 21610,12890 21610,12500 22010,12500 "/>
       <polygon fill="black" fill-opacity="0.501961" points="21730,21120 21340,21120 21340,20720 21730,20720 "/>
       <polygon fill="black" fill-opacity="0.501961" points="12070,12260 11670,12260 11670,11870 12070,11870 "/>
       <polygon fill="white" fill-opacity="0.501961" points="15820,18880 15430,18880 15430,18490 15820,18490 "/>
       <polygon fill="white" fill-opacity="0.501961" points="13930,13560 13530,13560 13530,13170 13930,13170 "/>
       <polygon fill="white" fill-opacity="0.501961" points="19660,12890 19270,12890 19270,12500 19660,12500 "/>
       <polygon fill="white" fill-opacity="0.501961" points="21770,16930 21380,16930 21380,16540 21770,16540 "/>
       <polygon fill="white" fill-opacity="0.501961" points="19320,18860 18920,18860 18920,18470 19320,18470 "/>
       <polygon fill="white" fill-opacity="0.501961" points="17480,14640 17090,14640 17090,14250 17480,14250 "/>
       <polygon fill="white" fill-opacity="0.501961" points="12700,17370 12310,17370 12310,16970 12700,16970 "/>
       <polygon fill="white" fill-opacity="0.501961" points="15010,21140 14610,21140 14610,20740 15010,20740 "/>
       <polygon fill="white" fill-opacity="0.501961" points="20310,21230 19920,21230 19920,20830 20310,20830 "/>
       <polygon fill="white" fill-opacity="0.501961" points="15300,15800 14900,15800 14900,15400 15300,15400 "/>
      </g>
      <g>
       <polygon fill="black" fill-opacity="0.501961" points="420,12660 420,12260 810,12260 810,12660 "/>
       <polygon fill="black" fill-opacity="0.501961" points="1150,17860 1150,17460 1540,17460 1540,17860 "/>
       <polygon fill="black" fill-opacity="0.501961" points="3000,14120 3000,13730 3400,13730 3400,14120 "/>
       <polygon fill="black" fill-opacity="0.501961" points="6810,13510 6810,13120 7200,13120 7200,13510 "/>
       <polygon fill="black" fill-opacity="0.501961" points="9280,15980 9280,15590 9670,15590 9670,15980 "/>
       <polygon fill="black" fill-opacity="0.501961" points="6320,19810 6320,19410 6720,19410 6720,19810 "/>
       <polygon fill="black" fill-opacity="0.501961" points="5060,16850 5060,16450 5450,16450 5450,16850 "/>
       <polygon fill="black" fill-opacity="0.501961" points="9330,22010 9330,21610 9730,21610 9730,22010 "/>
       <polygon fill="black" fill-opacity="0.501961" points="1110,21730 1110,21340 1500,21340 1500,21730 "/>
       <polygon fill="black" fill-opacity="0.501961" points="9970,12070 9970,11670 10360,11670 10360,12070 "/>
       <polygon fill="white" fill-opacity="0.501961" points="3350,15820 3350,15430 3740,15430 3740,15820 "/>
       <polygon fill="white" fill-opacity="0.501961" points="8670,13930 8670,13530 9060,13530 9060,13930 "/>
       <polygon fill="white" fill-opacity="0.501961" points="9330,19660 9330,19270 9730,19270 9730,19660 "/>
       <polygon fill="white" fill-opacity="0.501961" points="5290,21770 5290,21380 5690,21380 5690,21770 "/>
       <polygon fill="white" fill-opacity="0.501961" points="3370,19320 3370,18920 3760,18920 3760,19320 "/>
       <polygon fill="white" fill-opacity="0.501961" points="7590,17480 7590,17080 7980,17080 7980,17480 "/>
       <polygon fill="white" fill-opacity="0.501961" points="4860,12700 4860,12310 5260,12310 5260,12700 "/>
       <polygon fill="white" fill-opacity="0.501961" points="1090,15010 1090,14610 1490,14610 1490,15010 "/>
       <polygon fill="white" fill-opacity="0.501961" points="1000,20310 1000,19920 1400,19920 1400,20310 "/>
       <polygon fill="white" fill-opacity="0.501961" points="6430,15300 6430,14900 6820,14900 6820,15300 "/>
      </g>
     </g>
    </g>
   </g>
   <polygon fill="none" points="0,11380 45510,11380 45510,22760 0,22760 "/>
  </g>
 </g>
</svg>
