<?xml version="1.0" encoding="UTF-8"?>
<!DOCTYPE svg PUBLIC "-//W3C//DTD SVG 1.1//EN" "http://www.w3.org/Graphics/SVG/1.1/DTD/svg11.dtd">
<!-- Creator: CorelDRAW -->
<svg xmlns="http://www.w3.org/2000/svg" xml:space="preserve" width="512px" height="512px" version="1.1" shape-rendering="geometricPrecision" text-rendering="geometricPrecision" image-rendering="optimizeQuality" fill-rule="evenodd" clip-rule="evenodd"
viewBox="0 0 66680 66680"
 xmlns:xlink="http://www.w3.org/1999/xlink"
 xmlns:xodm="http://www.corel.com/coreldraw/odm/2003">
 <defs>
     <clipPath id="id0">
      <path d="M58340 64590c3450,0 6250,-2800 6250,-6250 0,-3450 -2800,-6250 -6250,-6250l-33340 0c-3450,0 -6250,2800 -6250,6250 0,3450 2800,6250 6250,6250l33340 0z"/>
     </clipPath>
     <clipPath id="id1">
      <path d="M14590 8330c0,-3450 -2800,-6250 -6260,-6250 -3450,0 -6250,2800 -6250,6250l0 33340c0,3460 2800,6250 6250,6250 3460,0 6260,-2790 6260,-6250l0 -33340z"/>
     </clipPath>
     <clipPath id="id2">
      <path d="M8330 64590c3460,0 6260,-2800 6260,-6250 0,-3450 -2800,-6250 -6260,-6250 -3450,0 -6250,2800 -6250,6250 0,3450 2800,6250 6250,6250z"/>
     </clipPath>
     <clipPath id="id3">
      <path d="M25000 2080l33340 0c3440,0 6250,2820 6250,6250l0 33340c0,3440 -2810,6250 -6250,6250l-33340 0c-3430,0 -6250,-2810 -6250,-6250l0 -33340c0,-3430 2820,-6250 6250,-6250zm8340 33340c1150,0 2080,-930 2080,-2080 0,-1150 -930,-2080 -2080,-2080 -1150,0 -2080,930 -2080,2080 0,1150 930,2080 2080,2080zm16670 0c1150,0 2080,-930 2080,-2080 0,-1150 -930,-2080 -2080,-2080 -1150,0 -2090,930 -2090,2080 0,1150 940,2080 2090,2080zm0 -16670c1150,0 2080,-930 2080,-2080 0,-1150 -930,-2080 -2080,-2080 -1150,0 -2090,930 -2090,2080 0,1150 940,2080 2090,2080zm-16670 0c1150,0 2080,-930 2080,-2080 0,-1150 -930,-2080 -2080,-2080 -1150,0 -2080,930 -2080,2080 0,1150 930,2080 2080,2080z"/>
     </clipPath>
 </defs>
 <g id="Layer_x0020_1">
  <metadata id="CorelCorpID_0Corel-Layer"/>
  <g id="_1348886684832">
   <rect fill="none" width="66680" height="66680"/>
   <g>
    <path fill="#666666" d="M58340 64590c3450,0 6250,-2800 6250,-6250 0,-3450 -2800,-6250 -6250,-6250l-33340 0c-3450,0 -6250,2800 -6250,6250 0,3450 2800,6250 6250,6250l33340 0z"/>
    <g clip-path="url(#id0)">
     <g>
      <g>
       <path id="_1" fill="white" d="M29170 59290c530,0 950,-420 950,-950 0,-520 -420,-950 -950,-950l-4170 0c-520,0 -940,430 -940,950 0,530 420,950 940,950l4170 0z"/>
       <path fill="white" d="M43760 59290c520,0 950,-420 950,-950 0,-520 -430,-950 -950,-950l-4170 0c-520,0 -950,430 -950,950 0,530 430,950 950,950l4170 0z"/>
       <path fill="white" d="M58340 59290c530,0 950,-420 950,-950 0,-520 -420,-950 -950,-950l-4160 0c-530,0 -950,430 -950,950 0,530 420,950 950,950l4160 0z"/>
      </g>
     </g>
    </g>
    <path fill="none" stroke="#333333" stroke-width="1300" stroke-miterlimit="2.61313" d="M58340 64590c3450,0 6250,-2800 6250,-6250 0,-3450 -2800,-6250 -6250,-6250l-33340 0c-3450,0 -6250,2800 -6250,6250 0,3450 2800,6250 6250,6250l33340 0z"/>
    <path fill="#666666" d="M14590 8330c0,-3450 -2800,-6250 -6260,-6250 -3450,0 -6250,2800 -6250,6250l0 33340c0,3460 2800,6250 6250,6250 3460,0 6260,-2790 6260,-6250l0 -33340z"/>
    <g clip-path="url(#id1)">
     <g>
      <g>
       <path id="_1_7" fill="white" d="M9280 37510c0,-530 -420,-950 -950,-950 -520,0 -940,420 -940,950l0 4160c0,530 420,950 940,950 530,0 950,-420 950,-950l0 -4160z"/>
       <path fill="white" d="M9280 22920c0,-520 -420,-950 -950,-950 -520,0 -940,430 -940,950l0 4170c0,520 420,950 940,950 530,0 950,-430 950,-950l0 -4170z"/>
       <path fill="white" d="M9280 8330c0,-520 -420,-940 -950,-940 -520,0 -940,420 -940,940l0 4170c0,530 420,950 940,950 530,0 950,-420 950,-950l0 -4170z"/>
      </g>
     </g>
    </g>
    <path fill="none" stroke="#333333" stroke-width="1300" stroke-miterlimit="2.61313" d="M14590 8330c0,-3450 -2800,-6250 -6260,-6250 -3450,0 -6250,2800 -6250,6250l0 33340c0,3460 2800,6250 6250,6250 3460,0 6260,-2790 6260,-6250l0 -33340z"/>
    <path fill="#666666" d="M8330 64590c3460,0 6260,-2800 6260,-6250 0,-3450 -2800,-6250 -6260,-6250 -3450,0 -6250,2800 -6250,6250 0,3450 2800,6250 6250,6250z"/>
    <g clip-path="url(#id2)">
     <g>
      <circle fill="white" cx="8330" cy="58340" r="950"/>
     </g>
    </g>
    <path fill="none" stroke="#333333" stroke-width="1300" stroke-miterlimit="2.61313" d="M8330 64590c3460,0 6260,-2800 6260,-6250 0,-3450 -2800,-6250 -6260,-6250 -3450,0 -6250,2800 -6250,6250 0,3450 2800,6250 6250,6250z"/>
    <path fill="#666666" d="M25000 2080l33340 0c3440,0 6250,2820 6250,6250l0 33340c0,3440 -2810,6250 -6250,6250l-33340 0c-3430,0 -6250,-2810 -6250,-6250l0 -33340c0,-3430 2820,-6250 6250,-6250zm8340 33340c1150,0 2080,-930 2080,-2080 0,-1150 -930,-2080 -2080,-2080 -1150,0 -2080,930 -2080,2080 0,1150 930,2080 2080,2080zm16670 0c1150,0 2080,-930 2080,-2080 0,-1150 -930,-2080 -2080,-2080 -1150,0 -2090,930 -2090,2080 0,1150 940,2080 2090,2080zm0 -16670c1150,0 2080,-930 2080,-2080 0,-1150 -930,-2080 -2080,-2080 -1150,0 -2090,930 -2090,2080 0,1150 940,2080 2090,2080zm-16670 0c1150,0 2080,-930 2080,-2080 0,-1150 -930,-2080 -2080,-2080 -1150,0 -2080,930 -2080,2080 0,1150 930,2080 2080,2080z"/>
    <g clip-path="url(#id3)">
     <g>
      <g>
       <g>
        <path id="_1_8" fill="white" d="M29170 42620c530,0 950,-420 950,-950 0,-520 -420,-940 -950,-940l-4170 0c-520,0 -940,420 -940,940 0,530 420,950 940,950l4170 0z"/>
        <path fill="white" d="M43760 42620c520,0 950,-420 950,-950 0,-520 -430,-940 -950,-940l-4170 0c-520,0 -950,420 -950,940 0,530 430,950 950,950l4170 0z"/>
        <path fill="white" d="M58340 42620c530,0 950,-420 950,-950 0,-520 -420,-940 -950,-940l-4160 0c-530,0 -950,420 -950,940 0,530 420,950 950,950l4160 0z"/>
       </g>
       <g>
        <path fill="white" d="M29170 25950c530,0 950,-420 950,-950 0,-520 -420,-940 -950,-940l-4170 0c-520,0 -940,420 -940,940 0,530 420,950 940,950l4170 0z"/>
        <path fill="white" d="M43760 25950c520,0 950,-420 950,-950 0,-520 -430,-940 -950,-940l-4170 0c-520,0 -950,420 -950,940 0,530 430,950 950,950l4170 0z"/>
        <path fill="white" d="M58340 25950c530,0 950,-420 950,-950 0,-520 -420,-940 -950,-940l-4160 0c-530,0 -950,420 -950,940 0,530 420,950 950,950l4160 0z"/>
       </g>
       <g>
        <path fill="white" d="M29170 9280c530,0 950,-420 950,-950 0,-520 -420,-940 -950,-940l-4170 0c-520,0 -940,420 -940,940 0,530 420,950 940,950l4170 0z"/>
        <path fill="white" d="M43760 9280c520,0 950,-420 950,-950 0,-520 -430,-940 -950,-940l-4170 0c-520,0 -950,420 -950,940 0,530 430,950 950,950l4170 0z"/>
        <path fill="white" d="M58340 9280c530,0 950,-420 950,-950 0,-520 -420,-940 -950,-940l-4160 0c-530,0 -950,420 -950,940 0,530 420,950 950,950l4160 0z"/>
       </g>
       <g>
        <path fill="white" d="M24060 12500c0,530 420,950 940,950 530,0 950,-420 950,-950l0 -4170c0,-520 -420,-940 -950,-940 -520,0 -940,420 -940,940l0 4170z"/>
        <path fill="white" d="M24060 27090c0,520 420,950 940,950 530,0 950,-430 950,-950l0 -4170c0,-520 -420,-950 -950,-950 -520,0 -940,430 -940,950l0 4170z"/>
        <path fill="white" d="M24060 41670c0,530 420,950 940,950 530,0 950,-420 950,-950l0 -4160c0,-530 -420,-950 -950,-950 -520,0 -940,420 -940,950l0 4160z"/>
       </g>
       <g>
        <path fill="white" d="M40730 12500c0,530 420,950 940,950 530,0 950,-420 950,-950l0 -4170c0,-520 -420,-940 -950,-940 -520,0 -940,420 -940,940l0 4170z"/>
        <path fill="white" d="M40730 27090c0,520 420,950 940,950 530,0 950,-430 950,-950l0 -4170c0,-520 -420,-950 -950,-950 -520,0 -940,430 -940,950l0 4170z"/>
        <path fill="white" d="M40730 41670c0,530 420,950 940,950 530,0 950,-420 950,-950l0 -4160c0,-530 -420,-950 -950,-950 -520,0 -940,420 -940,950l0 4160z"/>
       </g>
       <g>
        <path fill="white" d="M57390 12500c0,530 430,950 950,950 530,0 950,-420 950,-950l0 -4170c0,-520 -420,-940 -950,-940 -520,0 -950,420 -950,940l0 4170z"/>
        <path fill="white" d="M57390 27090c0,520 430,950 950,950 530,0 950,-430 950,-950l0 -4170c0,-520 -420,-950 -950,-950 -520,0 -950,430 -950,950l0 4170z"/>
        <path fill="white" d="M57390 41670c0,530 430,950 950,950 530,0 950,-420 950,-950l0 -4160c0,-530 -420,-950 -950,-950 -520,0 -950,420 -950,950l0 4160z"/>
       </g>
      </g>
     </g>
    </g>
    <path fill="none" stroke="#333333" stroke-width="1300" stroke-miterlimit="2.61313" d="M25000 2080l33340 0c3440,0 6250,2820 6250,6250l0 33340c0,3440 -2810,6250 -6250,6250l-33340 0c-3430,0 -6250,-2810 -6250,-6250l0 -33340c0,-3430 2820,-6250 6250,-6250zm8340 33340c1150,0 2080,-930 2080,-2080 0,-1150 -930,-2080 -2080,-2080 -1150,0 -2080,930 -2080,2080 0,1150 930,2080 2080,2080zm16670 0c1150,0 2080,-930 2080,-2080 0,-1150 -930,-2080 -2080,-2080 -1150,0 -2090,930 -2090,2080 0,1150 940,2080 2090,2080zm0 -16670c1150,0 2080,-930 2080,-2080 0,-1150 -930,-2080 -2080,-2080 -1150,0 -2090,930 -2090,2080 0,1150 940,2080 2090,2080zm-16670 0c1150,0 2080,-930 2080,-2080 0,-1150 -930,-2080 -2080,-2080 -1150,0 -2080,930 -2080,2080 0,1150 930,2080 2080,2080z"/>
    <g>
     <path fill="white" d="M29170 59290c530,0 950,-420 950,-950 0,-520 -420,-950 -950,-950l-4170 0c-520,0 -940,430 -940,950 0,530 420,950 940,950l4170 0z"/>
     <path fill="white" d="M43760 59290c520,0 950,-420 950,-950 0,-520 -430,-950 -950,-950l-4170 0c-520,0 -950,430 -950,950 0,530 430,950 950,950l4170 0z"/>
     <path fill="white" d="M58340 59290c530,0 950,-420 950,-950 0,-520 -420,-950 -950,-950l-4160 0c-530,0 -950,430 -950,950 0,530 420,950 950,950l4160 0z"/>
    </g>
   </g>
  </g>
 </g>
</svg>
